<svg xmlns="http://www.w3.org/2000/svg" xmlns:xlink="http://www.w3.org/1999/xlink" width="48" height="48" viewBox="0 0 48 48"><defs><clipPath id="a"><rect width="48" height="48" fill="#fff"/></clipPath></defs><g clip-path="url(#a)"><path d="M24,48A24,24,0,1,0,0,24,24,24,0,0,0,24,48Z" fill="#ffded6"/><path d="M22.051,30.5H13.6V27.9h8.45a4.551,4.551,0,1,1-4.262,6.15l2.435-.914A1.95,1.95,0,1,0,22.051,30.5ZM14.9,22.7H32.451a4.551,4.551,0,1,1-4.262,6.15l2.435-.914A1.95,1.95,0,1,0,32.451,25.3H14.9a3.9,3.9,0,0,1,0-7.8H25.951a1.95,1.95,0,1,0-1.827-2.635l-2.435-.913A4.551,4.551,0,1,1,25.951,20.1H14.9a1.3,1.3,0,0,0,0,2.6Z" fill="#130b46"/></g></svg>